<svg xmlns="http://www.w3.org/2000/svg" xmlns:xlink="http://www.w3.org/1999/xlink" version="1.1" width="863px" height="849px" viewBox="-0.5 -0.5 863 849" style="background-color: rgb(255, 255, 255);"><defs/><rect fill="#FFFFFF" width="100%" height="100%" x="0" y="0"/><g><g data-cell-id="0"><g data-cell-id="1"><g data-cell-id="56"><g><rect x="118.5" y="587" width="615" height="245" rx="36.75" ry="36.75" fill="rgb(255, 255, 255)" stroke="rgb(0, 0, 0)" stroke-dasharray="3 3" pointer-events="all"/></g></g><g data-cell-id="35"><g><rect x="16" y="16" width="830" height="520" rx="78" ry="78" fill="rgb(255, 255, 255)" stroke="rgb(0, 0, 0)" stroke-dasharray="3 3" pointer-events="all"/></g></g><g data-cell-id="2"><g><rect x="131" y="76" width="620" height="200" rx="30" ry="30" fill="#fff2cc" stroke="#d6b656" pointer-events="all"/></g></g><g data-cell-id="3"><g><rect x="151" y="126" width="120" height="60" rx="9" ry="9" fill="#d5e8d4" stroke="#82b366" pointer-events="all"/></g><g><g transform="translate(-0.5 -0.5)"><switch><foreignObject pointer-events="none" width="100%" height="100%" requiredFeatures="http://www.w3.org/TR/SVG11/feature#Extensibility" style="overflow: visible; text-align: left;"><div xmlns="http://www.w3.org/1999/xhtml" style="display: flex; align-items: unsafe center; justify-content: unsafe center; width: 118px; height: 1px; padding-top: 156px; margin-left: 152px;"><div data-drawio-colors="color: rgb(0, 0, 0); " style="box-sizing: border-box; font-size: 0px; text-align: center;"><div style="display: inline-block; font-size: 12px; font-family: Helvetica; color: rgb(0, 0, 0); line-height: 1.2; pointer-events: all; white-space: normal; overflow-wrap: normal;">container0</div></div></div></foreignObject><text x="211" y="160" fill="rgb(0, 0, 0)" font-family="&quot;Helvetica&quot;" font-size="12px" text-anchor="middle">container0</text></switch></g></g></g><g data-cell-id="4"><g/></g><g data-cell-id="5"><g><rect x="361" y="126" width="120" height="60" rx="9" ry="9" fill="#dae8fc" stroke="#6c8ebf" pointer-events="all"/></g><g><g transform="translate(-0.5 -0.5)"><switch><foreignObject pointer-events="none" width="100%" height="100%" requiredFeatures="http://www.w3.org/TR/SVG11/feature#Extensibility" style="overflow: visible; text-align: left;"><div xmlns="http://www.w3.org/1999/xhtml" style="display: flex; align-items: unsafe center; justify-content: unsafe center; width: 118px; height: 1px; padding-top: 156px; margin-left: 362px;"><div data-drawio-colors="color: rgb(0, 0, 0); " style="box-sizing: border-box; font-size: 0px; text-align: center;"><div style="display: inline-block; font-size: 12px; font-family: Helvetica; color: rgb(0, 0, 0); line-height: 1.2; pointer-events: all; white-space: normal; overflow-wrap: normal;">container1</div></div></div></foreignObject><text x="421" y="160" fill="rgb(0, 0, 0)" font-family="&quot;Helvetica&quot;" font-size="12px" text-anchor="middle">container1</text></switch></g></g></g><g data-cell-id="48"><g><path d="M 637 266 L 637 299.63" fill="none" stroke="rgb(0, 0, 0)" stroke-miterlimit="10" pointer-events="stroke"/><path d="M 637 304.88 L 633.5 297.88 L 637 299.63 L 640.5 297.88 Z" fill="rgb(0, 0, 0)" stroke="rgb(0, 0, 0)" stroke-miterlimit="10" pointer-events="all"/></g></g><g data-cell-id="7"><g><path d="M 607 214 C 607 203.33 667 203.33 667 214 L 667 258 C 667 268.67 607 268.67 607 258 Z" fill="#ffe6cc" stroke="#d79b00" stroke-miterlimit="10" pointer-events="all"/><path d="M 607 214 C 607 222 667 222 667 214 M 607 218 C 607 226 667 226 667 218 M 607 222 C 607 230 667 230 667 222" fill="none" stroke="#d79b00" stroke-miterlimit="10" pointer-events="all"/></g><g><g transform="translate(-0.5 -0.5)"><switch><foreignObject pointer-events="none" width="100%" height="100%" requiredFeatures="http://www.w3.org/TR/SVG11/feature#Extensibility" style="overflow: visible; text-align: left;"><div xmlns="http://www.w3.org/1999/xhtml" style="display: flex; align-items: unsafe center; justify-content: unsafe center; width: 58px; height: 1px; padding-top: 246px; margin-left: 608px;"><div data-drawio-colors="color: rgb(0, 0, 0); " style="box-sizing: border-box; font-size: 0px; text-align: center;"><div style="display: inline-block; font-size: 12px; font-family: Helvetica; color: rgb(0, 0, 0); line-height: 1.2; pointer-events: all; white-space: normal; overflow-wrap: normal;">volume2</div></div></div></foreignObject><text x="637" y="250" fill="rgb(0, 0, 0)" font-family="&quot;Helvetica&quot;" font-size="12px" text-anchor="middle">volume2</text></switch></g></g></g><g data-cell-id="16"><g><rect x="425" y="86" width="72" height="30" fill="none" stroke="none" pointer-events="all"/></g><g><g transform="translate(-0.5 -0.5)"><switch><foreignObject pointer-events="none" width="100%" height="100%" requiredFeatures="http://www.w3.org/TR/SVG11/feature#Extensibility" style="overflow: visible; text-align: left;"><div xmlns="http://www.w3.org/1999/xhtml" style="display: flex; align-items: unsafe center; justify-content: unsafe center; width: 70px; height: 1px; padding-top: 101px; margin-left: 426px;"><div data-drawio-colors="color: rgb(0, 0, 0); " style="box-sizing: border-box; font-size: 0px; text-align: center;"><div style="display: inline-block; font-size: 12px; font-family: Helvetica; color: rgb(0, 0, 0); line-height: 1.2; pointer-events: all; white-space: normal; overflow-wrap: normal;">POD</div></div></div></foreignObject><text x="461" y="105" fill="rgb(0, 0, 0)" font-family="&quot;Helvetica&quot;" font-size="12px" text-anchor="middle">POD</text></switch></g></g></g><g data-cell-id="66"><g><path d="M 637 346 L 637 366 L 637 356 L 637 369.63" fill="none" stroke="rgb(0, 0, 0)" stroke-miterlimit="10" pointer-events="stroke"/><path d="M 637 374.88 L 633.5 367.88 L 637 369.63 L 640.5 367.88 Z" fill="rgb(0, 0, 0)" stroke="rgb(0, 0, 0)" stroke-miterlimit="10" pointer-events="all"/></g></g><g data-cell-id="29"><g><rect x="577" y="306" width="120" height="40" rx="6" ry="6" fill="#f5f5f5" stroke="#666666" pointer-events="all"/></g><g><g transform="translate(-0.5 -0.5)"><switch><foreignObject pointer-events="none" width="100%" height="100%" requiredFeatures="http://www.w3.org/TR/SVG11/feature#Extensibility" style="overflow: visible; text-align: left;"><div xmlns="http://www.w3.org/1999/xhtml" style="display: flex; align-items: unsafe center; justify-content: unsafe center; width: 118px; height: 1px; padding-top: 326px; margin-left: 578px;"><div data-drawio-colors="color: #333333; " style="box-sizing: border-box; font-size: 0px; text-align: center;"><div style="display: inline-block; font-size: 12px; font-family: Helvetica; color: rgb(51, 51, 51); line-height: 1.2; pointer-events: all; white-space: normal; overflow-wrap: normal;">PVC</div></div></div></foreignObject><text x="637" y="330" fill="#333333" font-family="&quot;Helvetica&quot;" font-size="12px" text-anchor="middle">PVC</text></switch></g></g></g><g data-cell-id="36"><g><rect x="403" y="29" width="78" height="30" fill="none" stroke="none" pointer-events="all"/></g><g><g transform="translate(-0.5 -0.5)"><switch><foreignObject pointer-events="none" width="100%" height="100%" requiredFeatures="http://www.w3.org/TR/SVG11/feature#Extensibility" style="overflow: visible; text-align: left;"><div xmlns="http://www.w3.org/1999/xhtml" style="display: flex; align-items: unsafe center; justify-content: unsafe center; width: 76px; height: 1px; padding-top: 44px; margin-left: 404px;"><div data-drawio-colors="color: rgb(0, 0, 0); " style="box-sizing: border-box; font-size: 0px; text-align: center;"><div style="display: inline-block; font-size: 14px; font-family: Helvetica; color: rgb(0, 0, 0); line-height: 1.2; pointer-events: all; white-space: normal; overflow-wrap: normal;">Node节点</div></div></div></foreignObject><text x="442" y="48" fill="rgb(0, 0, 0)" font-family="&quot;Helvetica&quot;" font-size="14px" text-anchor="middle">Node节点</text></switch></g></g></g><g data-cell-id="37"><g><path d="M 156 469.33 L 156 362.67 C 156 347.94 180.62 336 211 336 C 241.38 336 266 347.94 266 362.67 L 266 469.33 C 266 484.06 241.38 496 211 496 C 180.62 496 156 484.06 156 469.33 Z" fill="rgb(255, 255, 255)" stroke="rgb(0, 0, 0)" stroke-width="2" stroke-miterlimit="10" pointer-events="all"/><path d="M 156 362.67 C 156 377.39 180.62 389.33 211 389.33 C 241.38 389.33 266 377.39 266 362.67" fill="none" stroke="rgb(0, 0, 0)" stroke-width="2" stroke-miterlimit="10" pointer-events="all"/></g><g><g transform="translate(-0.5 -0.5)"><switch><foreignObject pointer-events="none" width="100%" height="100%" requiredFeatures="http://www.w3.org/TR/SVG11/feature#Extensibility" style="overflow: visible; text-align: left;"><div xmlns="http://www.w3.org/1999/xhtml" style="display: flex; align-items: unsafe center; justify-content: unsafe center; width: 108px; height: 1px; padding-top: 416px; margin-left: 157px;"><div data-drawio-colors="color: rgb(0, 0, 0); " style="box-sizing: border-box; font-size: 0px; text-align: center;"><div style="display: inline-block; font-size: 12px; font-family: Helvetica; color: rgb(0, 0, 0); line-height: 1.2; pointer-events: all; white-space: normal; overflow-wrap: normal;">hostPath<div>（临时单点存储）</div></div></div></div></foreignObject><text x="211" y="420" fill="rgb(0, 0, 0)" font-family="&quot;Helvetica&quot;" font-size="12px" text-anchor="middle">hostPath...</text></switch></g></g></g><g data-cell-id="38"><g><path d="M 141 770.33 L 141 663.67 C 141 648.94 165.62 637 196 637 C 226.38 637 251 648.94 251 663.67 L 251 770.33 C 251 785.06 226.38 797 196 797 C 165.62 797 141 785.06 141 770.33 Z" fill="rgb(255, 255, 255)" stroke="rgb(0, 0, 0)" stroke-width="2" stroke-miterlimit="10" pointer-events="all"/><path d="M 141 663.67 C 141 678.39 165.62 690.33 196 690.33 C 226.38 690.33 251 678.39 251 663.67" fill="none" stroke="rgb(0, 0, 0)" stroke-width="2" stroke-miterlimit="10" pointer-events="all"/></g><g><g transform="translate(-0.5 -0.5)"><switch><foreignObject pointer-events="none" width="100%" height="100%" requiredFeatures="http://www.w3.org/TR/SVG11/feature#Extensibility" style="overflow: visible; text-align: left;"><div xmlns="http://www.w3.org/1999/xhtml" style="display: flex; align-items: unsafe center; justify-content: unsafe center; width: 108px; height: 1px; padding-top: 717px; margin-left: 142px;"><div data-drawio-colors="color: rgb(0, 0, 0); " style="box-sizing: border-box; font-size: 0px; text-align: center;"><div style="display: inline-block; font-size: 12px; font-family: Helvetica; color: rgb(0, 0, 0); line-height: 1.2; pointer-events: all; white-space: normal; overflow-wrap: normal;">CDS</div></div></div></foreignObject><text x="196" y="721" fill="rgb(0, 0, 0)" font-family="&quot;Helvetica&quot;" font-size="12px" text-anchor="middle">CDS</text></switch></g></g></g><g data-cell-id="39"><g><path d="M 291 770.33 L 291 663.67 C 291 648.94 313.39 637 341 637 C 368.61 637 391 648.94 391 663.67 L 391 770.33 C 391 785.06 368.61 797 341 797 C 313.39 797 291 785.06 291 770.33 Z" fill="rgb(255, 255, 255)" stroke="rgb(0, 0, 0)" stroke-width="2" stroke-miterlimit="10" pointer-events="all"/><path d="M 291 663.67 C 291 678.39 313.39 690.33 341 690.33 C 368.61 690.33 391 678.39 391 663.67" fill="none" stroke="rgb(0, 0, 0)" stroke-width="2" stroke-miterlimit="10" pointer-events="all"/></g><g><g transform="translate(-0.5 -0.5)"><switch><foreignObject pointer-events="none" width="100%" height="100%" requiredFeatures="http://www.w3.org/TR/SVG11/feature#Extensibility" style="overflow: visible; text-align: left;"><div xmlns="http://www.w3.org/1999/xhtml" style="display: flex; align-items: unsafe center; justify-content: unsafe center; width: 98px; height: 1px; padding-top: 717px; margin-left: 292px;"><div data-drawio-colors="color: rgb(0, 0, 0); " style="box-sizing: border-box; font-size: 0px; text-align: center;"><div style="display: inline-block; font-size: 12px; font-family: Helvetica; color: rgb(0, 0, 0); line-height: 1.2; pointer-events: all; white-space: normal; overflow-wrap: normal;">PFS</div></div></div></foreignObject><text x="341" y="721" fill="rgb(0, 0, 0)" font-family="&quot;Helvetica&quot;" font-size="12px" text-anchor="middle">PFS</text></switch></g></g></g><g data-cell-id="40"><g><path d="M 441 770.33 L 441 663.67 C 441 648.94 465.62 637 496 637 C 526.38 637 551 648.94 551 663.67 L 551 770.33 C 551 785.06 526.38 797 496 797 C 465.62 797 441 785.06 441 770.33 Z" fill="rgb(255, 255, 255)" stroke="rgb(0, 0, 0)" stroke-width="2" stroke-miterlimit="10" pointer-events="all"/><path d="M 441 663.67 C 441 678.39 465.62 690.33 496 690.33 C 526.38 690.33 551 678.39 551 663.67" fill="none" stroke="rgb(0, 0, 0)" stroke-width="2" stroke-miterlimit="10" pointer-events="all"/></g><g><g transform="translate(-0.5 -0.5)"><switch><foreignObject pointer-events="none" width="100%" height="100%" requiredFeatures="http://www.w3.org/TR/SVG11/feature#Extensibility" style="overflow: visible; text-align: left;"><div xmlns="http://www.w3.org/1999/xhtml" style="display: flex; align-items: unsafe center; justify-content: unsafe center; width: 108px; height: 1px; padding-top: 717px; margin-left: 442px;"><div data-drawio-colors="color: rgb(0, 0, 0); " style="box-sizing: border-box; font-size: 0px; text-align: center;"><div style="display: inline-block; font-size: 12px; font-family: Helvetica; color: rgb(0, 0, 0); line-height: 1.2; pointer-events: all; white-space: normal; overflow-wrap: normal;">BOS</div></div></div></foreignObject><text x="496" y="721" fill="rgb(0, 0, 0)" font-family="&quot;Helvetica&quot;" font-size="12px" text-anchor="middle">BOS</text></switch></g></g></g><g data-cell-id="46"><g><path d="M 211 266 L 211 329.63" fill="none" stroke="rgb(0, 0, 0)" stroke-miterlimit="10" pointer-events="stroke"/><path d="M 211 334.88 L 207.5 327.88 L 211 329.63 L 214.5 327.88 Z" fill="rgb(0, 0, 0)" stroke="rgb(0, 0, 0)" stroke-miterlimit="10" pointer-events="all"/></g></g><g data-cell-id="41"><g><path d="M 181 214 C 181 203.33 241 203.33 241 214 L 241 258 C 241 268.67 181 268.67 181 258 Z" fill="#ffe6cc" stroke="#d79b00" stroke-miterlimit="10" pointer-events="all"/><path d="M 181 214 C 181 222 241 222 241 214 M 181 218 C 181 226 241 226 241 218 M 181 222 C 181 230 241 230 241 222" fill="none" stroke="#d79b00" stroke-miterlimit="10" pointer-events="all"/></g><g><g transform="translate(-0.5 -0.5)"><switch><foreignObject pointer-events="none" width="100%" height="100%" requiredFeatures="http://www.w3.org/TR/SVG11/feature#Extensibility" style="overflow: visible; text-align: left;"><div xmlns="http://www.w3.org/1999/xhtml" style="display: flex; align-items: unsafe center; justify-content: unsafe center; width: 58px; height: 1px; padding-top: 246px; margin-left: 182px;"><div data-drawio-colors="color: rgb(0, 0, 0); " style="box-sizing: border-box; font-size: 0px; text-align: center;"><div style="display: inline-block; font-size: 12px; font-family: Helvetica; color: rgb(0, 0, 0); line-height: 1.2; pointer-events: all; white-space: normal; overflow-wrap: normal;">volume0</div></div></div></foreignObject><text x="211" y="250" fill="rgb(0, 0, 0)" font-family="&quot;Helvetica&quot;" font-size="12px" text-anchor="middle">volume0</text></switch></g></g></g><g data-cell-id="63"><g><path d="M 431 266 L 431 429.63" fill="none" stroke="rgb(0, 0, 0)" stroke-miterlimit="10" pointer-events="stroke"/><path d="M 431 434.88 L 427.5 427.88 L 431 429.63 L 434.5 427.88 Z" fill="rgb(0, 0, 0)" stroke="rgb(0, 0, 0)" stroke-miterlimit="10" pointer-events="all"/></g></g><g data-cell-id="42"><g><path d="M 401 214 C 401 203.33 461 203.33 461 214 L 461 258 C 461 268.67 401 268.67 401 258 Z" fill="#ffe6cc" stroke="#d79b00" stroke-miterlimit="10" pointer-events="all"/><path d="M 401 214 C 401 222 461 222 461 214 M 401 218 C 401 226 461 226 461 218 M 401 222 C 401 230 461 230 461 222" fill="none" stroke="#d79b00" stroke-miterlimit="10" pointer-events="all"/></g><g><g transform="translate(-0.5 -0.5)"><switch><foreignObject pointer-events="none" width="100%" height="100%" requiredFeatures="http://www.w3.org/TR/SVG11/feature#Extensibility" style="overflow: visible; text-align: left;"><div xmlns="http://www.w3.org/1999/xhtml" style="display: flex; align-items: unsafe center; justify-content: unsafe center; width: 58px; height: 1px; padding-top: 246px; margin-left: 402px;"><div data-drawio-colors="color: rgb(0, 0, 0); " style="box-sizing: border-box; font-size: 0px; text-align: center;"><div style="display: inline-block; font-size: 12px; font-family: Helvetica; color: rgb(0, 0, 0); line-height: 1.2; pointer-events: all; white-space: normal; overflow-wrap: normal;">volume1</div></div></div></foreignObject><text x="431" y="250" fill="rgb(0, 0, 0)" font-family="&quot;Helvetica&quot;" font-size="12px" text-anchor="middle">volume1</text></switch></g></g></g><g data-cell-id="44"><g><rect x="571" y="126" width="120" height="60" rx="9" ry="9" fill="#e1d5e7" stroke="#9673a6" pointer-events="all"/></g><g><g transform="translate(-0.5 -0.5)"><switch><foreignObject pointer-events="none" width="100%" height="100%" requiredFeatures="http://www.w3.org/TR/SVG11/feature#Extensibility" style="overflow: visible; text-align: left;"><div xmlns="http://www.w3.org/1999/xhtml" style="display: flex; align-items: unsafe center; justify-content: unsafe center; width: 118px; height: 1px; padding-top: 156px; margin-left: 572px;"><div data-drawio-colors="color: rgb(0, 0, 0); " style="box-sizing: border-box; font-size: 0px; text-align: center;"><div style="display: inline-block; font-size: 12px; font-family: Helvetica; color: rgb(0, 0, 0); line-height: 1.2; pointer-events: all; white-space: normal; overflow-wrap: normal;">container2</div></div></div></foreignObject><text x="631" y="160" fill="rgb(0, 0, 0)" font-family="&quot;Helvetica&quot;" font-size="12px" text-anchor="middle">container2</text></switch></g></g></g><g data-cell-id="61"><g><path d="M 431 496 L 431 580.63" fill="none" stroke="rgb(0, 0, 0)" stroke-miterlimit="10" pointer-events="stroke"/><path d="M 431 585.88 L 427.5 578.88 L 431 580.63 L 434.5 578.88 Z" fill="rgb(0, 0, 0)" stroke="rgb(0, 0, 0)" stroke-miterlimit="10" pointer-events="all"/></g></g><g data-cell-id="52"><g><rect x="371" y="436" width="120" height="60" fill="rgb(255, 255, 255)" stroke="rgb(0, 0, 0)" pointer-events="all"/></g><g><g transform="translate(-0.5 -0.5)"><switch><foreignObject pointer-events="none" width="100%" height="100%" requiredFeatures="http://www.w3.org/TR/SVG11/feature#Extensibility" style="overflow: visible; text-align: left;"><div xmlns="http://www.w3.org/1999/xhtml" style="display: flex; align-items: unsafe center; justify-content: unsafe center; width: 118px; height: 1px; padding-top: 466px; margin-left: 372px;"><div data-drawio-colors="color: rgb(0, 0, 0); " style="box-sizing: border-box; font-size: 0px; text-align: center;"><div style="display: inline-block; font-size: 12px; font-family: Helvetica; color: rgb(0, 0, 0); line-height: 1.2; pointer-events: all; white-space: normal; overflow-wrap: normal;">CSI插件适配层<div>（云存储）</div></div></div></div></foreignObject><text x="431" y="470" fill="rgb(0, 0, 0)" font-family="&quot;Helvetica&quot;" font-size="12px" text-anchor="middle">CSI插件适配层...</text></switch></g></g></g><g data-cell-id="57"><g><rect x="381" y="587" width="100" height="30" fill="none" stroke="none" pointer-events="all"/></g><g><g transform="translate(-0.5 -0.5)"><switch><foreignObject pointer-events="none" width="100%" height="100%" requiredFeatures="http://www.w3.org/TR/SVG11/feature#Extensibility" style="overflow: visible; text-align: left;"><div xmlns="http://www.w3.org/1999/xhtml" style="display: flex; align-items: unsafe center; justify-content: unsafe center; width: 98px; height: 1px; padding-top: 602px; margin-left: 382px;"><div data-drawio-colors="color: rgb(0, 0, 0); " style="box-sizing: border-box; font-size: 0px; text-align: center;"><div style="display: inline-block; font-size: 12px; font-family: Helvetica; color: rgb(0, 0, 0); line-height: 1.2; pointer-events: all; white-space: normal; overflow-wrap: normal;">底层存储后端</div></div></div></foreignObject><text x="431" y="606" fill="rgb(0, 0, 0)" font-family="&quot;Helvetica&quot;" font-size="12px" text-anchor="middle">底层存储后端</text></switch></g></g></g><g data-cell-id="58"><g><path d="M 601 770.33 L 601 663.67 C 601 648.94 625.62 637 656 637 C 686.38 637 711 648.94 711 663.67 L 711 770.33 C 711 785.06 686.38 797 656 797 C 625.62 797 601 785.06 601 770.33 Z" fill="rgb(255, 255, 255)" stroke="rgb(0, 0, 0)" stroke-width="2" stroke-miterlimit="10" pointer-events="all"/><path d="M 601 663.67 C 601 678.39 625.62 690.33 656 690.33 C 686.38 690.33 711 678.39 711 663.67" fill="none" stroke="rgb(0, 0, 0)" stroke-width="2" stroke-miterlimit="10" pointer-events="all"/></g><g><g transform="translate(-0.5 -0.5)"><switch><foreignObject pointer-events="none" width="100%" height="100%" requiredFeatures="http://www.w3.org/TR/SVG11/feature#Extensibility" style="overflow: visible; text-align: left;"><div xmlns="http://www.w3.org/1999/xhtml" style="display: flex; align-items: unsafe center; justify-content: unsafe center; width: 108px; height: 1px; padding-top: 717px; margin-left: 602px;"><div data-drawio-colors="color: rgb(0, 0, 0); " style="box-sizing: border-box; font-size: 0px; text-align: center;"><div style="display: inline-block; font-size: 12px; font-family: Helvetica; color: rgb(0, 0, 0); line-height: 1.2; pointer-events: all; white-space: normal; overflow-wrap: normal;">本地磁盘/分布式存储 (如 Ceph)</div></div></div></foreignObject><text x="656" y="721" fill="rgb(0, 0, 0)" font-family="&quot;Helvetica&quot;" font-size="12px" text-anchor="middle">本地磁盘/分布式存储 (如 Ceph)</text></switch></g></g></g><g data-cell-id="67"><g><path d="M 637 416 L 637 466 L 497.37 466" fill="none" stroke="rgb(0, 0, 0)" stroke-miterlimit="10" pointer-events="stroke"/><path d="M 492.12 466 L 499.12 462.5 L 497.37 466 L 499.12 469.5 Z" fill="rgb(0, 0, 0)" stroke="rgb(0, 0, 0)" stroke-miterlimit="10" pointer-events="all"/></g></g><g data-cell-id="65"><g><rect x="577" y="376" width="120" height="40" rx="6" ry="6" fill="#dae8fc" stroke="#6c8ebf" pointer-events="all"/></g><g><g transform="translate(-0.5 -0.5)"><switch><foreignObject pointer-events="none" width="100%" height="100%" requiredFeatures="http://www.w3.org/TR/SVG11/feature#Extensibility" style="overflow: visible; text-align: left;"><div xmlns="http://www.w3.org/1999/xhtml" style="display: flex; align-items: unsafe center; justify-content: unsafe center; width: 118px; height: 1px; padding-top: 396px; margin-left: 578px;"><div data-drawio-colors="color: rgb(0, 0, 0); " style="box-sizing: border-box; font-size: 0px; text-align: center;"><div style="display: inline-block; font-size: 12px; font-family: Helvetica; color: rgb(0, 0, 0); line-height: 1.2; pointer-events: all; white-space: normal; overflow-wrap: normal;">PV</div></div></div></foreignObject><text x="637" y="400" fill="rgb(0, 0, 0)" font-family="&quot;Helvetica&quot;" font-size="12px" text-anchor="middle">PV</text></switch></g></g></g></g></g></g><switch><g requiredFeatures="http://www.w3.org/TR/SVG11/feature#Extensibility"/><a transform="translate(0,-5)" xlink:href="https://www.drawio.com/doc/faq/svg-export-text-problems" target="_blank"><text text-anchor="middle" font-size="10px" x="50%" y="100%">Text is not SVG - cannot display</text></a></switch></svg>